<?xml version="1.0" standalone="no"?>
<!DOCTYPE svg PUBLIC "-//W3C//DTD SVG 20010904//EN"
 "http://www.w3.org/TR/2001/REC-SVG-20010904/DTD/svg10.dtd">
<svg version="1.0" xmlns="http://www.w3.org/2000/svg"
 width="260.000000pt" height="260.000000pt" viewBox="0 0 260.000000 260.000000"
 preserveAspectRatio="xMidYMid meet">
<metadata>
Created by potrace 1.11, written by Peter Selinger 2001-2013
</metadata>
<g transform="translate(0.000000,260.000000) scale(0.100000,-0.100000)"
fill="#000000" stroke="none">
<path d="M734 2275 l-559 -323 0 -652 0 -652 559 -323 c537 -310 561 -323 585
-310 14 8 267 153 561 323 l535 310 0 652 0 652 -535 310 c-294 170 -547 315
-561 323 -24 13 -48 0 -585 -310z m1047 -142 l479 -277 0 -556 0 -555 -466
-270 c-257 -149 -475 -274 -485 -279 -14 -7 -122 51 -498 269 l-481 278 0 109
c0 87 3 109 13 105 7 -3 141 -79 298 -169 156 -91 294 -170 307 -177 l23 -12
-3 111 -3 111 -315 183 -315 182 -3 335 -2 335 477 277 c263 152 482 276 487
277 4 0 224 -125 487 -277z"/>
<path d="M1650 1284 c-157 -91 -301 -175 -321 -186 l-36 -20 -304 175 c-167
97 -312 179 -322 183 -16 6 -17 -1 -15 -102 l3 -109 315 -182 c173 -101 320
-183 326 -183 6 0 77 38 158 85 81 47 149 85 152 85 2 0 4 -97 4 -215 0 -128
4 -215 9 -215 10 0 300 165 314 179 4 4 6 156 5 338 l-3 331 -285 -164z"/>
</g>
</svg>
